<?xml version="1.0" encoding="utf-8"?>
<!-- Generator: Adobe Illustrator 18.0.0, SVG Export Plug-In . SVG Version: 6.00 Build 0)  -->
<!DOCTYPE svg PUBLIC "-//W3C//DTD SVG 1.1//EN" "http://www.w3.org/Graphics/SVG/1.1/DTD/svg11.dtd">
<svg version="1.1" id="Layer_1" xmlns="http://www.w3.org/2000/svg" xmlns:xlink="http://www.w3.org/1999/xlink" x="0px" y="0px"
	 viewBox="0 0 101.3 94.3" enable-background="new 0 0 101.3 94.3" xml:space="preserve">
<g>
	<rect x="44.7" y="26" fill="#DDD9C8" width="2.1" height="3.6"/>
	<rect x="63.8" y="26" fill="#DDD9C8" width="2.1" height="3.6"/>
	<path fill="#DDD9C8" d="M79.9,76.4H30.4c-5.6,0-10.1-4.8-10.1-10.7V39.4c0-5.9,4.5-10.7,10.1-10.7h49.6c5.6,0,10.1,4.8,10.1,10.7
		v26.3C90,71.6,85.5,76.4,79.9,76.4z"/>
	<path fill="#F1EEDB" d="M30.4,73.4c-3.9,0-7.1-3.4-7.1-7.7V39.4c0-4.2,3.2-7.7,7.1-7.7h49.6c3.9,0,7.1,3.4,7.1,7.7v26.3
		c0,4.2-3.2,7.7-7.1,7.7H30.4z"/>
	<g>
		<circle fill="#DE4A37" cx="55.2" cy="52.6" r="14.6"/>
		<rect x="52.3" y="42.9" fill="#F6F6F6" width="5.7" height="19.2"/>
		<rect x="45.6" y="49.7" fill="#F6F6F6" width="19.2" height="5.7"/>
	</g>
	<path fill="#4A5779" d="M64.8,27.7c-1.1,0-2-0.9-2-2v-4.5c0-0.4-0.3-0.7-0.7-0.7H48.4c-0.4,0-0.7,0.3-0.7,0.7v4.5c0,1.1-0.9,2-2,2
		s-2-0.9-2-2v-4.5c0-2.6,2.1-4.7,4.7-4.7h13.7c2.6,0,4.7,2.1,4.7,4.7v4.5C66.8,26.8,65.9,27.7,64.8,27.7z"/>
	<path opacity="0.1" fill="#1D1D1B" d="M22.6,72.4c1.8,2.4,4.7,4,7.8,4h49.6c5.6,0,10.1-4.8,10.1-10.7V39.4c0-0.9-0.1-1.8-0.3-2.6
		C78.5,67.1,59.8,73.9,22.6,72.4z"/>
</g>
</svg>
